<?xml version="1.0" encoding="UTF-8"?>
<svg version="1.1" viewBox="0 0 2048 1024" width="1280" height="1280" xmlns="http://www.w3.org/2000/svg">
<path transform="translate(0)" d="m0 0h2048v1024h-2048z" fill="#FDFEFE"/>
<path transform="translate(495,360)" d="m0 0h15l5 4 7 16 8 25 6 29 2 15 1 13v32l-4 25-6 26-10 29-7 15-14 26-12 17-13 16-14 15-12 11-17 13-12 8-15 9-25 12-24 9-34 9-20 3-30 1-21-1-27-4-25-7-25-9-18-8-18-11-12-8-14-10-10-8-4-5 3-1h191l30-5 21-6 20-9 14-8 12-8 13-10 15-14 11-13 12-17 10-18 8-18 6-19 3-12 2-16v-39l-2-17-2-4-4-2h-189l-10 3-10 6-9 9-6 12-2 9 1 11 4 12 7 10 8 7 13 5 16 1 69-1h26l2 1-1 5-7 12-10 13-16 16-13 9-16 8-15 5-16 3h-15l-15-2-16-4-15-6-11-7-10-8-14-14-10-14-11-23-4-14-2-13v-16l2-17 5-16 5-12 9-14 12-14 13-11 17-10 19-7 14-3 10-1z" fill="#5614EA"/>
<path transform="translate(250,210)" d="m0 0h49l26 3 20 5 21 7 29 13 18 10 27 18 13 10 2 3-8 1h-166l-27 1-20 3-19 5-16 6-16 8-16 10-13 10-10 9-14 14-9 11-11 16-10 18-8 19-7 24-3 18-1 14v10l3 27 6 25 5 15 8 18 12 23v2h-73l-7-2-3-3-10-32-6-22-4-22-1-8v-42l2-18 6-30 8-26 9-22 12-22 10-15 12-16 9-10 7-8 10-10 8-7 17-13 17-11 20-11 21-9 30-10 23-5z" fill="#5614EA"/>
<path transform="translate(1025,368)" d="m0 0h52l24 2 19 4 10 4 9 7 6 7 5 11 3 10 1 15-3 16-5 11-6 7-10 7-8 4h-2l6 12 10 15 9 14 28 42v2h-20l-23-1-5-6-6-10-11-17-11-18-9-14-4-5-3-2h-15l-1 4-1 23-1 41-1 5h-38l-1-1v-188z" fill="#040304"/>
<path transform="translate(742,366)" d="m0 0h28l22 4 16 5 4 3-1 7-8 20-5 2-20-5-9-1h-23l-12 3-11 6-9 9-8 14-4 14-1 8v21l3 15 4 11 9 13 8 6 7 3 7 1h24l9-2 2-3 1-20-1-11-3-3-31-1-1-1v-32l1-1h74l1 2v86l-2 9-6 4-25 6-18 2h-29l-17-3-13-5-9-5-9-7-7-7-10-15-5-11-5-22-1-10v-23l3-19 5-15 8-15 12-14 12-9 16-8 19-5z" fill="#050306"/>
<path transform="translate(913,410)" d="m0 0 18 1 16 4 13 7 9 8 9 13 6 13 3 12 1 19-1 14-4 17-8 15-11 12-10 7-12 5-14 3h-22l-15-4-14-7-10-9-7-8-8-16-4-18v-24l2-12 5-15 7-13 9-10 11-7 15-5z" fill="#040304"/>
<path transform="translate(1245,410)" d="m0 0h19l16 3 10 4 9 7 7 7 8 14 4 12 2 13v22l-2 3-63 1-27-1v9l4 11 6 8 5 4 5 2 6 1h12l17-2 29-7 1 2-1 18-2 9-9 5-17 4-9 1h-25l-16-3-14-6-11-8-7-7-6-10-5-12-3-12-1-7v-19l3-17 5-14 6-10 9-10 7-6 13-6z" fill="#040304"/>
<path transform="translate(1963,410)" d="m0 0h17l13 2 13 5 13 10 7 9 6 12 3 9 2 19-1 16-2 2-4 1-39 1h-22l-25-1v7l5 13 7 9 7 4 10 2h10l17-2 24-6h4l1 2v11l-2 13-5 5-10 4-17 3h-31l-16-4-16-8-12-11-6-9-6-13-4-17v-26l4-17 5-12 7-11 7-8 10-7 13-5z" fill="#040305"/>
<path transform="translate(1537,410)" d="m0 0h13l15 2 13 5 10 7 9 10 8 15 3 12 1 7v24l-1 2-3 1-68 1h-21l1 9 8 16 7 6 5 2 6 1h12l17-2 29-6h3l-2 15-3 11-6 5-11 4-19 3h-25l-18-4-15-8-10-8-9-12-4-8-4-12-2-12v-23l4-17 5-12 6-10 9-10 8-6 12-5 8-2z" fill="#040304"/>
<path transform="translate(1386,410)" d="m0 0h23l18 3 16 5 8 4 1 4-6 12-4 10-3 2-17-6-13-2h-21l-3 3-1 2v6l5 5 15 7 27 12 10 7 5 4 6 11 2 7v15l-2 8-5 10-8 9-12 7-9 3-12 2h-28l-19-3-9-3-5-4-2-7v-20l1-1 9 1 25 6 11 1h15l7-2 2-4v-8l-2-6-6-2-15-8-17-8-12-8-10-9-5-9-2-7v-14l3-10 6-9 9-8 14-6z" fill="#040305"/>
<path transform="translate(1890,412)" d="m0 0 1 3-6 14-7 20-16 43-19 49-4 9-4 6-4 2h-28l-7-2-3-4-8-21-12-31-10-27-15-39-6-16-2-5h40l4 6 10 28 13 38 7 23 3 12v-4l12-41 7-23 13-36 3-3z" fill="#040304"/>
<path transform="translate(1727,410)" d="m0 0 5 2 1 4v30l-16 2-16 3-10 6-7 10-2 6-1 31-1 49-2 5h-26l-12-1v-131l1-12 1-1 8-1h18l3 3 4 16 2 2 9-5 10-10 13-6z" fill="#050306"/>
<path transform="translate(915,442)" d="m0 0 12 1 10 5 6 8 4 13 1 7v15l-2 14-4 10-5 7-8 5-6 2h-9l-9-2-6-4-6-7-4-10-2-10v-23l4-14 6-9 9-6z" fill="#FDFEFE"/>
<path transform="translate(1065,401)" d="m0 0h9l22 3 9 4 7 7 2 7v9l-4 10-9 7-12 3-7 1h-17l-2-6v-40z" fill="#FDFEFE"/>
<path transform="translate(1251,439)" d="m0 0h9l9 3 8 7 6 10 1 8-2 1-37 1h-17l-1-6 3-8 6-8 7-6z" fill="#FDFEFE"/>
<path transform="translate(1539,439)" d="m0 0h12l9 4 7 7 7 11 1 5-7 2h-52l-1-4 4-9 8-10 8-5z" fill="#FDFEFE"/>
<path transform="translate(1966,439)" d="m0 0h12l10 4 7 7 4 9 1 7-3 2-34 1h-18l-1-1v-7l5-10 9-9z" fill="#FDFEFE"/>
</svg>
