<?xml version="1.0" encoding="UTF-8"?>
<svg version="1.1" viewBox="0 0 2000 2000" width="1280" height="1280" xmlns="http://www.w3.org/2000/svg">
<path transform="translate(321,924)" d="m0 0h162l3 5 8 24 5 25 1 9v26l-3 21-4 18-6 16-8 17-10 16-10 13-9 10-12 12-19 14-18 10-19 8-24 7-20 3h-35l-18-3-22-6-19-8-15-8-16-11-10-7-1-4h116l17-1 25-5 20-8 14-8 13-10 9-8 9-11 8-11 8-16 5-13 5-21v-39l-1-7-1-1h-129l-9 2-8 5-6 7-3 8v11l3 9 8 9 9 4 21 1h57l-1 5-7 11-9 11-10 8-16 8-11 4-7 1h-20l-12-3-16-7-11-8-10-10-8-13-4-9-4-17v-19l4-17 10-18 11-12 9-7 19-9 8-2z" fill="#5D28C7"/>
<path transform="translate(315,822)" d="m0 0h14l18 1 20 4 16 5 17 7 22 13 16 12 4 4v1l-131 1-19 3-15 4-16 7-14 9-14 11-9 9-8 10-8 13-7 14-7 21-2 12v32l3 17 6 18 8 17 5 7v2h-54l-8-20-5-19-3-17v-40l5-26 7-21 10-21 8-12 10-14 14-15 12-11 16-11 17-10 20-8 21-6 13-2z" fill="#5D28C7"/>
<path transform="translate(876,930)" d="m0 0h45l17 1 14 3 14 7 8 8 5 10 2 8v17l-3 10-7 10-7 7-9 5h-2l7 11 29 43 8 12-3 2h-31l-3-3-14-22-13-21-7-12-18-1v58l-7 1h-25l-1-1v-152zm32 27v41l1 1h10l12-1 10-4 5-6 2-4v-14l-4-6-5-4-6-2-7-1z" fill="#010003"/>
<path transform="translate(651,928)" d="m0 0h15l17 2 17 5 5 2-3 9-6 16-4 1-10-4-15-3h-15l-11 3-9 5-5 4-9 14-3 10-1 7v19l3 15 6 12 9 8 10 4 5 1h15l11-1 1-32h-29l-1-1v-24l1-3 60 1v79l-8 3-19 4-17 2h-20l-16-3-12-5-10-7-8-8-7-11-5-13-3-15-1-10v-12l2-17 5-15 7-13 11-12 14-9 13-5 10-2z" fill="#010002"/>
<path transform="translate(776,965)" d="m0 0h26l11 3 11 6 10 9 7 12 4 12 1 5v25l-4 16-8 14-8 8-8 5-11 4-11 2h-15l-16-4-12-7-8-8-7-12-4-12-1-5v-26l4-15 5-10 9-10 8-6 13-5zm7 25-7 3-7 8-3 9-1 7v16l2 11 5 9 6 5 5 2h13l8-4 5-6 3-6 1-5v-28l-3-9-4-6-5-4-6-2z" fill="#010002"/>
<path transform="translate(1633,965)" d="m0 0h25l13 4 11 7 7 8 6 13 3 16v19l-1 1h-75l3 12 5 9 10 6 4 1h19l17-4 9-4 3 1-1 23-5 3-13 4-14 2h-17l-15-3-12-5-9-7-7-8-6-13-3-11v-27l4-15 5-10 9-10 9-7 11-4zm6 22-8 4-6 9-3 10 1 2h44l1-1-1-8-4-8-8-7-4-1z" fill="#010002"/>
<path transform="translate(1051,965)" d="m0 0h25l13 4 11 7 6 7 7 14 2 8 1 11v16l-1 1h-75l3 12 5 10 4 2 9 4h19l15-3 12-5h2v24l-5 3-13 4-12 2h-20l-14-3-10-4-11-8-7-8-6-13-3-13v-24l4-16 6-12 8-9 10-6 10-4zm6 22-8 4-6 9-3 11 2 1h43l1-1-1-8-4-8-5-5-7-3z" fill="#010002"/>
<path transform="translate(1286,965)" d="m0 0h24l12 3 12 7 8 9 5 10 3 11 1 10v17l-1 1h-75l3 12 6 10 12 6h19l18-4 7-3h4v23l-5 3-13 4-13 2h-18l-15-3-12-5-10-8-7-9-5-11-3-11v-26l4-16 6-12 12-12 12-6zm6 22-8 4-6 9-2 6v6h44l1-5-4-11-5-5-4-3-4-1z" fill="#010002"/>
<path transform="translate(1178,964)" d="m0 0 18 1 14 3 12 4 1 4-8 19-4 1-13-5-9-2h-14l-6 3-1 5 3 5 14 7 18 8 11 7 6 7 4 9 1 12-2 10-5 9-9 8-10 4-16 3h-19l-18-3-9-3-1-1v-26l4 1 15 5 17 3h8l9-3 3-3v-7l-5-5-16-8-17-8-8-6-7-8-3-9v-15l4-10 7-7 12-6 8-2z" fill="#010003"/>
<path transform="translate(1459,966)" d="m0 0h32l4 10 17 50 4 13 1 6v10h2l3-15 14-43 10-30 3-1h30l1 2-15 40-11 29-15 39-3 7-7 1h-24l-3-1-15-39-19-50-9-24z" fill="#010003"/>
<path transform="translate(1432,965)" d="m0 0h21l-1 18-1 11-3 1h-13l-9 2-8 5-5 6-3 8-1 67-9 1h-22l-1-1v-117l24 1 2 5 2 14 5-4 7-8 10-7z" fill="#020004"/>
</svg>
