<?xml version="1.0" encoding="UTF-8"?>
<svg version="1.1" viewBox="0 0 2048 1024" width="1280" height="1280" xmlns="http://www.w3.org/2000/svg">
<path transform="translate(0)" d="m0 0h2048v1024h-2048z" fill="#25292C"/>
<path transform="translate(289,357)" d="m0 0h72l123 1 21 1 8 1 4 5 8 19 7 25 5 25 2 15 1 13v28l-2 18-5 26-8 27-10 24-10 20-11 17-11 15-10 11-7 8-12 12-8 7-15 12-15 10-19 11-25 12-31 10-25 6-15 2-13 1h-19l-30-3-21-4-29-9-28-11-25-13-19-13-9-7-7-5-1-7 1-2 7-2 146 1 47-1 17-3 15-4 15-5 19-9 16-10 16-12 15-14 11-12 15-23 10-19 8-20 7-25 3-21v-17l-3-27-2-9-1-1-121 1h-72l-12 2-9 6-7 8-5 11-1 4v12l2 9 4 9 6 9 9 6 10 3 19 1h85l7 2 1 1-1 8-7 11-8 10-9 10-9 8-13 9-15 8-15 5-18 3h-13l-22-4-18-6-15-8-16-12-9-9-10-14-8-14-7-16-5-18v-23l5-21 5-13 8-16 7-10 9-11 10-9 12-8 14-8 18-6 14-3 7-1z" fill="#4C09E0"/>
<path transform="translate(272,207)" d="m0 0h15l26 2 24 5 18 6 26 11 16 8 19 11 7 5 7 4 12 8 9 7 2 6-6 2-98-1h-64l-31 2-25 4-24 7-19 8-10 6-9 5-11 8-11 9-16 16-11 15-12 20-13 28-6 19-3 12-2 24 1 23 3 20 6 24 7 18 10 19 6 12 1 6-1 1-16 1-56-2-8-4-7-14-9-27-7-25-5-26v-32l4-27 10-35 11-30 13-26 5-8 9-13 9-12 11-12 9-10 8-7 13-12 16-12 19-12 21-11 17-7 28-9 25-5 19-2z" fill="#4C09E0"/>
<path transform="translate(1026,374)" d="m0 0h57l25 2 15 4 11 6 9 9 8 16 2 6v23l-3 11-7 12-7 8-15 8h-2l13 20 22 33 11 16 7 11v2l-2 1h-38l-5-5-7-11-13-20-12-19-7-11-1-3-13-3h-10l-1 71-1 1-13 1h-23l-2-2-1-12v-173z" fill="#FEFEFE"/>
<path transform="translate(744,371)" d="m0 0h25l21 3 17 5 5 5-1 5-2 7-4 12-4 4-24-5-7-1h-23l-15 4-11 7-8 9-6 11-4 12-2 15v16l2 15 5 13 8 11 8 6 12 5 6 1h18l10-2 3-3 1-4 1-30-6-1h-25l-5-3-1-3v-24l2-4h71l3 2 1 45v40l-2 9-4 3-18 5-20 3h-43l-17-4-12-5-10-7-11-11-10-17-6-18-3-20v-26l3-19 4-12 6-12 8-11 12-12 13-8 11-5 15-4z" fill="#FEFEFE"/>
<path transform="translate(907,416)" d="m0 0h22l14 3 10 4 9 6 8 7 7 10 6 13 3 12 1 7v24l-3 16-5 13-9 13-9 9-15 8-13 3-22 1-15-2-14-5-11-8-8-9-6-10-5-11-3-13-1-6v-25l4-17 8-16 11-12 9-6 10-5z" fill="#FEFEFE"/>
<path transform="translate(1960,416)" d="m0 0h23l12 2 12 5 11 8 8 10 8 16 3 13 1 13v15l-2 2-26 1h-68l4 12 5 9 7 8 9 4 13 2 15-1 23-6 8-3h3v18l-3 10-6 5-15 4-16 2h-21l-13-2-16-5-9-6-8-7-9-13-6-15-3-17v-19l3-17 5-13 5-9 9-11 13-9 10-4z" fill="#FEFEFE"/>
<path transform="translate(1245,416)" d="m0 0h20l16 3 9 4 10 7 8 9 8 16 3 12 1 10v21l-3 2-90 2-1 1 4 11 5 9 6 7 12 5 7 1h12l16-3 18-6 5 1 2 5-1 12-3 9-6 5-13 4-16 2h-24l-14-2-12-4-10-6-9-9-9-13-6-15-2-9-1-9v-16l3-18 5-13 5-9 9-10 7-6 14-7z" fill="#FEFEFE"/>
<path transform="translate(1534,416)" d="m0 0h20l16 3 14 7 10 9 7 11 5 12 3 15 1 18-2 7-10 2-82 2-1 3 4 10 9 13 8 5 6 2h24l27-6h7l2 6-1 11-4 9-5 4-13 4-17 2h-22l-17-3-13-5-11-8-9-10-6-11-5-13-3-17v-15l2-15 5-15 6-11 11-12 10-7 12-5z" fill="#FEFEFE"/>
<path transform="translate(1388,416)" d="m0 0h21l26 4 11 3 2 3v11l-4 12-3 3h-7l-22-5h-23l-6 3-1 3 4 6 13 8 32 16 12 8 6 7 4 10v22l-3 9-6 8-6 7-10 6-16 4-8 1h-26l-21-3-8-3-4-6-2-8v-16l3-3 17 5 20 3 9 1h10l10-5 1-2v-8l-6-7-35-16-13-9-8-8-5-10-2-9v-8l3-12 7-10 10-8 12-5z" fill="#FEFEFE"/>
<path transform="translate(1742,417)" d="m0 0 33 1 6 2 3 4 28 84 4 11 1 1 8-30 20-60 3-8 4-3h36l1 1-1 8-15 40-13 35-14 36-9 20-2 2-7 2h-26l-6-3-4-8-12-29-29-78-10-24z" fill="#FEFEFE"/>
<path transform="translate(1714,416)" d="m0 0h16l2 2 2 19v12l-5 2-25 4-14 7-5 8-2 5-1 10-1 74-3 3-2 1h-24l-7-1-4-4v-136l2-3 3-1h13l11 3 3 7 2 10h6l10-9 11-9 8-3z" fill="#FEFEFE"/>
<path transform="translate(909,448)" d="m0 0h16l11 4 5 6 5 15 1 10v14l-2 15-4 10-4 5-9 5-3 1h-15l-10-4-7-8-4-10-2-13v-13l3-19 6-10 7-6z" fill="#25292C"/>
<path transform="translate(435,429)" d="m0 0h27l4 4 2 8 2 19v32l-4 21-8 27-9 20-10 17-12 18-8 10-15 15h-2v2l-17 13-17 11-19 10-11 4-9 3-16 4-24 3-11 1-33 1-64-1-13-1h-23l-43-2 1 6 5 2 5 6-4-2-8-6-1-7 1-2 7-2 146 1 47-1 17-3 15-4 15-5 19-9 16-10 16-12 15-14 11-12 15-23 10-19 8-20 7-25 3-21v-17l-3-27-2-9-1-1-121 1h-72l-12 2-9 6-7 8-4 8-1-3 6-10 9-9 8-4 3-1z" fill="#3D06B5"/>
<path transform="translate(1065,407)" d="m0 0h23l12 2 6 3 5 7 2 6v15l-5 8-7 5-8 3-12 2h-14l-3-3-1-12v-24l1-11z" fill="#25292C"/>
<path transform="translate(289,357)" d="m0 0h72l123 1 21 1 8 1 4 5 8 19 7 25 5 25 2 15 1 13v28l-2 18-5 26-3 11-1-4 5-22 3-23v-37l-2-20-3-20-6-23-10-28-2-4-142 1h-105l-16 2-20 5-12 6-12 8-13 12-6 5-6 9-1-2 7-10 10-11 13-10 15-9 15-6 21-5 7-1z" fill="#3D06B5"/>
<path transform="translate(1542,443)" d="m0 0 10 1 11 6 7 10 3 7v4l-7 2h-46l-4-2 3-10 5-9 5-4 9-4z" fill="#25292C"/>
<path transform="translate(1971,443)" d="m0 0 8 1 10 5 6 7 3 7 1 8-4 2h-47l-4-2 1-7 5-10 8-7 7-3z" fill="#25292C"/>
<path transform="translate(1249,444)" d="m0 0h13l12 6 6 9 2 6v6l-7 2h-44l-3-1-1-4 5-12 7-8z" fill="#25292C"/>
<path transform="translate(233,464)" d="m0 0h1l2 19 4 10 7 10 9 6 10 3 19 1h85l7 2 1 1-1 8-7 11-8 10-9 10-9 8-13 9-15 8-15 5-18 3h-13l-22-4-18-6-15-8-1-2 6 2 14 7 20 6 15 2h9l22-3 18-6 15-8 12-9 10-9 11-13 9-14 1-5-34 1h-61l-17-2-14-7-5-4-9-14-3-11z" fill="#3D06B5"/>
<path transform="translate(272,207)" d="m0 0h15l26 2 24 5 18 6 26 11 16 8 12 7-2 1-21-11-22-9-25-8-16-3-15-2-15-1h-25l-37 2-16 2-15 4-18 6-13 5-15 7-22 13-10 7-2-1 11-8 20-12 23-11 36-12 25-5 19-2z" fill="#3D06B5"/>
<path transform="translate(409,247)" d="m0 0 5 2 9 6 7 4 12 8 9 7 2 6-6 2-98-1h-64l-31 2-25 4-24 7-19 8-10 6-9 5-7 5-2-1 11-8 15-9 22-10 29-8 18-3 31-2h43l107 2 10-1 4-1-2-4-17-12-16-10z" fill="#3D06B5"/>
<path transform="translate(440,677)" d="m0 0 2 1-11 9-15 10-19 11-25 12-31 10-25 6-15 2-13 1h-19l-30-3-21-4-29-9-18-7 3-1 25 9 21 6 25 4 11 1h41l17-2 24-5 29-9 18-8 16-8 14-8 19-13z" fill="#3D06B5"/>
<path transform="translate(86,424)" d="m0 0 1 4-3 12-2 24 1 23 3 20 6 24 7 18 10 19 6 12 1 6-1 1-16 1-56-2-6-3 2-1 8 2h64v-5l-9-16-6-12-3-9-5-16-4-16-3-20-1-13v-19l2-19z" fill="#3D06B5"/>
<path transform="translate(17,410)" d="m0 0h1l-1 8-4 17-2 35v16l2 22 7 28v5l-2-4-6-21-5-26v-32l4-27z" fill="#3D06B5"/>
<path transform="translate(171,428)" d="m0 0 1 3-5 14-3 19-1 9v14l4 17 2 5-1 3-5-13-3-12v-23l5-21 5-13z" fill="#3D06B5"/>
<path transform="translate(99,275)" d="m0 0 2 1-29 29v-3l8-8 7-8 10-9z" fill="#4207C3"/>
</svg>
