<?xml version="1.0" encoding="UTF-8"?>
<svg version="1.1" viewBox="0 0 2048 1024" width="1280" height="1280" xmlns="http://www.w3.org/2000/svg">
<path transform="translate(500,358)" d="m0 0h10l7 7 5 10 8 26 4 19 3 26 1 19v30l-2 24-4 22-6 18-12 26-10 19-14 22-10 13-12 14-16 16-11 9-15 11-25 15-23 11-25 9-33 8-15 2-15 1h-35l-20-2-18-4-21-6-27-10-20-9-16-9-14-11-8-8-2-5 1-1 21-1 37-1h119l18-2 17-4 27-9 21-10 17-11 13-10 10-9 10-10 13-17 12-21 8-17 7-21 5-25 2-23v-18l-2-21-2-9h-35l-32 1-121 1-14 2-10 5-7 6-6 10-3 14 1 13 5 12 9 10 8 5 12 4 7 1h21l23-1h48l4 3 1 7-4 11-8 11-9 10-13 10-14 8-11 5-15 4-12 2-21 1-20-2-21-7-11-6-11-8-12-11-11-14-9-16-6-15-4-17-1-9v-19l3-17 6-16 9-17 9-11 9-10 12-10 14-9 11-5 16-4 25-2 195-1 22-1zm-22 19 4 1zm17 1m-12 110v6h1v-6zm31 9v13h1v-13zm-32 2v6h1v-6zm-1 10 1 4zm32 1-4 23-6 20-8 21-10 21-13 21-10 13-10 11-7 8-6 7 4-2 16-16 9-11 10-14 10-17 11-23 11-33 4-20v-9zm-33 5 1 4zm-1 6 1 4zm-1 4-1 9 2-4v-5zm-2 9-2 9 2-2 1-7zm-267 8m1 1m263 0 1 3zm-262 1m3 2m258 0 1 3zm-257 1m1 1m2 1m253 0 1 2zm-252 1m2 1m1 1m248 0 1 2zm-246 1m1 1m2 1m242 0m-240 1m1 1m238 0 1 2zm-236 1m2 1m233 0-1 4 2-1zm-2 5 1 2zm-1 2 1 2zm-1 2m-1 2m-1 1 1 2zm-1 2m-1 2m-1 1 1 2zm-1 2m-1 1 1 2zm-1 2m-1 1 1 2zm-1 2m-1 1 1 2zm-1 2m-1 1m-1 2m-1 1m-1 1m-1 2m-1 1m-1 1m-1 2m-1 1m-1 1m-1 1m-2 3m-1 1m-1 1m-4 5m6 44m-2 1-6 7 4-2 4-5zm-8 7-7 6h3l6-5zm-9 7-1 2 3-1zm-3 2-1 2 3-1zm-3 2-1 2 3-1zm-3 2-1 2 3-1zm-3 2-1 2 3-1zm-3 2-1 2 3-1zm-3 2-17 9 3 1 16-9zm-239 8m2 1m3 1m215 0m-214 1m211 0-24 10-25 8 4 1 30-10 18-8zm-208 1m2 1m2 1m151 16-3 2 7-1zm-108 1m2 1m99 0 4 1zm-94 1m89 0-19 3-9 1-33 1v1h35l23-3 8-2v-1zm-86 1m5 1m6 1m5 1v1h6v-1z" fill="#5215E0"/>
<path transform="translate(270,211)" d="m0 0h16l24 2 29 5 18 5 21 8 28 13 44 26 5 4-1 4-5 2h-80l-104 1-21 2-21 4-21 7-23 11-19 13-11 9-13 12-10 11-11 15-12 21-9 20-7 23-4 22-1 7v32l3 19 6 21 8 21 8 20 2 7v5l-7 3h-50l-14-2-5-5-5-10-8-26-5-26-2-19-1-17v-19l2-28 5-29 6-20 9-21 10-19 12-19 12-16 13-15 11-12 8-7 11-10 17-12 18-11 19-10 24-9 20-6 31-5 9-1z" fill="#5215E0"/>
<path transform="translate(746,370)" d="m0 0h23l20 3 19 5 5 5-3 9-5 17-3 4-7-1-23-6-15-1-15 2-11 4-9 6-7 7-6 10-6 14-2 9-1 17 2 16 5 13 7 11 9 9 8 5 12 3h14l12-3 4-4 2-8v-24l-31-1-5-2-1-2v-20l2-8 2-1 13-1h55l4 2 1 9 1 39v17l-1 16-4 10-5 5-14 5-19 3-11 1h-27l-20-3-14-5-11-8-9-8-9-13-7-14-5-16-2-13v-28l3-17 6-17 8-15 11-12 9-8 17-9 17-5z" fill="#FEFEFE"/>
<path transform="translate(1024,374)" d="m0 0h69l24 3 10 4 11 8 9 12 5 13 1 5v21l-4 12-7 11-7 8-14 8-4 1 9 11 13 19 10 15 10 17 6 13-2 4-10 3-12-1-8-4-11-12-11-14-16-24-7-11-6-5-8-2h-10v13l-2 46-2 10-2 2-4 1h-14l-9-4-5-6-2-6-1-8v-156zm44 32-4 2-1 3v45l2 2h18l13-3 8-4 6-5 4-8v-10l-4-10-6-7-8-3-14-2z" fill="#FEFEFE"/>
<path transform="translate(901,417)" d="m0 0h34l12 3 13 7 12 12 8 13 5 15 2 11v27l-3 14-8 16-8 10-10 8-13 6-15 3h-25l-16-3-12-6-12-11-9-13-5-11-3-11-1-8v-19l3-17 5-12 6-10 9-10 10-7 15-6zm12 30-9 2-8 7-6 10-2 9-1 10v13l3 17 4 8 8 7 8 3 5 1h8l10-4 5-4 5-8 3-12 1-7v-20l-3-14-5-10-6-5-11-3z" fill="#FEFEFE"/>
<path transform="translate(1960,416)" d="m0 0h23l14 2 12 6 10 9 7 9 7 14 3 11 1 6v26l-2 2h-93l5 15 6 9 7 6 9 4 6 1h20l17-5 17-6 1 2-1 14-3 11-4 5-8 3-15 2h-39l-14-3-12-6-10-9-7-8-6-10-6-16-2-9v-21l2-11 5-15 6-11 10-13 11-8 9-4zm8 26-10 4-6 5-5 8-3 9 1 4 4 2h48l3-2-1-9-6-11-8-7-6-3z" fill="#FDFDFD"/>
<path transform="translate(1240,417)" d="m0 0h32l12 3 12 7 10 10 8 13 5 14 2 12v22l-3 2-8 1-33 1h-24l-28-1 4 13 6 10 8 7 9 4 5 1h22l26-6h6v13l-4 7-8 7-8 3-9 1h-38l-15-3-16-8-12-12-8-14-5-15-1-5v-25l4-17 6-14 7-10 7-8 11-7 12-5zm11 25-9 3-9 8-5 10-1 9 4 2h46l6-2-1-9-5-10-4-5-8-5-3-1z" fill="#FDFDFD"/>
<path transform="translate(1528,417)" d="m0 0h32l12 3 10 5 10 9 8 11 6 13 3 11 1 6v21l-3 3-3 1-23 1h-68l4 11 6 10 7 8 9 5 6 1h24l18-4h11l1 1v9l-5 10-7 6-6 2-10 1h-40l-16-4-14-9-11-11-6-9-5-13-3-15v-20l3-15 6-16 8-12 9-9 14-8zm13 24-12 6-7 7-6 12-1 5 6 3h38l13-1 3-1-1-6-7-13-7-7-8-4-3-1z" fill="#FEFEFE"/>
<path transform="translate(1741,417)" d="m0 0 39 1 4 5 12 37 10 31 11 33 8-32 12-38 9-29 4-6 25-1h16l1 3-8 19-9 25-15 39-12 28-10 22-5 6-5 2h-21l-7-1-5-6-14-33-16-41-14-38-7-17z" fill="#FEFEFE"/>
<path transform="translate(1385,417)" d="m0 0h30l21 3 11 3 1 1v10l-4 15-3 5-10-3-15-5-6-1h-19l-8 4-1 1 1 7 9 7 16 8 22 10 12 8 7 7 5 10 1 4v12l-4 13-8 11-8 6-16 6-14 2h-26l-13-1-8-3-6-8-2-9v-7l2-3 18 4 24 3 10-1 7-4h2l2-8-4-7-5-4-14-7-20-9-12-8-9-8-4-8-3-14 1-11 4-9 6-8 8-7 11-5z" fill="#FEFEFE"/>
<path transform="translate(1722,415)" d="m0 0 9 1 1 3 1 12v18l-7 2-18 2-11 4-7 4-6 10-2 6-1 17-2 63-2 4h-18l-7-2-6-7-3-9-2-15v-107l2-2h24l3 2 4 18h6l10-8 10-9 8-4z" fill="#FEFEFE"/>
</svg>
