<?xml version="1.0" encoding="UTF-8"?>
<svg version="1.1" viewBox="0 0 2048 1024" width="1280" height="1280" xmlns="http://www.w3.org/2000/svg">
<path transform="translate(280,354)" d="m0 0h249l5 2 6 13 8 24 5 21 4 27 1 14v38l-2 20-5 28-6 20-10 25-8 17-9 15-7 11-14 18-11 13-9 10-14 13-20 15-21 14-27 14-24 9-25 7-24 5-22 3-16 1h-17l-21-2-34-7-20-6-21-8-25-12-17-10-16-11-14-11-5-6v-2h16l11 1h43l136-1 24-4 19-5 21-8 21-11 12-8 14-10 16-15 7-7 9-11 12-17 10-19 8-20 7-24 4-26v-35l-3-24-1-3h-203l-12 2-8 4-10 9-8 16-2 8v9l4 13 6 11 7 8 10 5 13 3h106l7 2-1 6-10 15-8 10-9 10-9 8-18 11-16 6-16 4-17 2h-13l-17-2-15-4-16-7-15-10-13-12-9-10-10-15-8-17-6-18-2-11v-24l4-18 6-16 8-16 9-13 12-13 14-11 16-9 22-8 10-2z" fill="#5116D3"/>
<path transform="translate(275,195)" d="m0 0h13l31 2 20 3 19 5 27 9 22 10 20 11 17 11 18 13 7 8v1l-10 1-187 1-23 2-25 5-21 7-19 9-13 8-14 10-13 11-15 15-9 11-10 14-8 13-10 22-10 30-4 23-1 11v14l2 23 4 22 7 23 10 24 9 16 3 5v2l-7 1h-74l-6-10-8-21-7-27-5-27-2-23v-21l2-22 6-31 7-25 10-25 10-21 14-23 12-16 11-13 7-8 13-13 11-9 20-15 20-12 19-10 20-8 26-8 25-5 18-2z" fill="#5117D3"/>
<path transform="translate(697,364)" d="m0 0h22l24 3 18 5 5 4-1 8-6 14-3 10-3 1-18-7-16-3h-20l-12 3-12 7-9 8-8 13-4 9-3 16v25l3 16 4 10 10 13 11 7 9 3 5 1h24l7-3 2-4 1-8v-22l-1-5h-33l-3-2-1-9v-18l4-6 19-1h51l4 2 1 31v55l-1 11-5 5-15 4-21 3-11 1h-33l-17-3-14-5-13-9-10-10-7-11-7-14-5-16-3-20v-22l3-18 7-20 9-16 12-13 12-9 14-7 13-4z"/>
<path transform="translate(986,367)" d="m0 0h66l20 2 16 4 10 5 10 9 6 8 5 12 3 17-2 15-5 12-9 13-6 5-14 7 2 4 14 23 11 16 10 15 15 22 2 5-4 1h-36l-6-4-10-16-10-15-8-13-12-19-5-6-8-2-13-1-1 74-3 2h-33l-6-2v-192zm43 33-2 3-1 38 1 11 3 2h19l15-4 10-6 4-7 1-4v-14l-5-10-5-4-10-4-10-1z"/>
<path transform="translate(862,411)" d="m0 0h28l14 3 14 7 12 11 7 10 7 14 3 12 1 7v26l-3 16-8 17-10 13-10 8-11 5-13 3-8 1h-23l-15-3-14-7-10-9-8-11-8-16-4-17v-28l3-14 7-16 8-11 8-8 13-8 13-4zm13 31-10 2-8 4-5 5-4 8-3 13-1 7v17l3 15 5 10 7 6 7 3 5 1h11l8-3 8-6 4-6 3-12 1-8v-23l-2-12-6-12-6-5-7-3z"/>
<path transform="translate(1510,411)" d="m0 0h30l14 3 11 6 10 8 7 10 6 12 4 13 2 17v13l-3 4-13 1h-77l-6 1 1 7 4 10 6 9 5 4 10 4 9 1h13l17-2 11-3 11-5 4 1v10l-1 12-4 7-5 4-7 3-22 3h-26l-20-3-12-5-11-8-8-9-6-9-6-15-3-15v-28l5-19 9-17 9-10 11-8 12-5zm10 27-8 3-8 7-7 12-1 9 8 2h43l8-1 1-1-1-7-5-10-9-10-6-3-4-1z"/>
<path transform="translate(1212,411)" d="m0 0h29l16 4 12 7 11 11 7 12 4 14 2 11 1 11v12l-4 5h-95l5 17 7 10 5 4 9 4 9 1h15l20-3 10-4 7-2h4v18l-4 11-6 5-12 3-19 2h-27l-15-2-11-4-9-6-11-11-7-11-5-11-4-16-1-10v-11l2-16 5-16 7-13 9-10 7-6 14-7zm9 27-9 3-6 5-7 10-3 12 2 2 4 1h40l14-1 1-5-7-14-9-10-8-3z"/>
<path transform="translate(1952,411)" d="m0 0h32l15 4 10 6 10 9 7 10 5 11 4 15 2 19v9l-2 3-30 1-68 1 3 10 7 14 9 8 12 3h24l18-4 15-6 3 1-1 21-2 6-5 5-11 4-21 3h-27l-18-3-10-4-12-9-9-10-8-14-5-15-2-12v-18l2-13 5-15 6-12 8-10 8-7 10-6 11-4zm11 27-8 3-8 7-6 9-3 8v3l4 2 6 1h44l6-1-1-10-6-11-5-5-5-4-7-2z"/>
<path transform="translate(1365,410)" d="m0 0h17l24 3 17 5 5 5-2 8-5 16-2 2-9-1-18-5-10-2h-18l-6 4 1 7 5 6 14 8 18 8 15 8 9 7 6 7 4 8 2 8v12l-4 13-7 10-4 5-11 7-11 3-14 2h-29l-25-3-6-3-2-2-1-4v-27l7 1 17 5 21 3h14l11-4 4-4-1-7-9-8-15-8-18-8-12-7-10-8-6-8-3-9v-19l4-10 8-10 10-7 13-5z"/>
<path transform="translate(1730,411)" d="m0 0 9 1h27l5 3 3 4 16 48 10 33 5 17 2 4 6-20 8-26 19-56 4-6 39-1 1 5-11 30-23 61-14 34-7 16-3 3-4 1h-29l-7-3-17-40-17-46-12-34-9-21z"/>
<path transform="translate(1706,410)" d="m0 0h11l4 4v30l-3 2-24 4-11 4-10 8-4 5-2 13-1 80-4 2h-33l-4-4v-143l1-2h26l5 2 3 19 2 3 8-7 8-8 10-7 11-4z"/>
</svg>
