<?xml version="1.0" encoding="UTF-8"?>
<svg version="1.1" viewBox="0 0 2000 2000" width="1280" height="1280" xmlns="http://www.w3.org/2000/svg">
<path transform="translate(983,764)" d="m0 0h518l3 4 12 30 9 25 9 30 8 32 6 34 3 25 1 16v84l-2 22-5 33-7 33-8 29-11 33-12 29-10 21-10 19-11 20-16 25-12 17-14 18-14 17-11 13-9 9-1 2h-2l-2 4-12 12-8 7-13 12-22 18-13 10-27 18-23 14-21 12-33 16-25 10-31 11-41 11-23 5-49 7-35 2h-36l-28-1-27-3-39-6-36-9-27-8-28-10-37-15-22-11-27-16-15-9-20-14-21-16-17-14-11-9-4-5 397-1 35-4 29-5 35-9 35-13 24-11 21-11 19-12 19-13 16-12 14-12 13-12 18-18 7-8 11-13 12-16 10-15 9-14 10-18 8-16 9-19 8-21 9-30 7-31 4-27 2-26v-39l-2-26-5-34-1-10-409 1-17 4-16 7-10 7-10 9-9 11-8 16-4 11-2 10v22l3 16 6 15 7 12 9 10 7 7 11 7 13 6 13 4 14 2h221l2 2-11 23-11 18-9 12-11 14-14 15-8 7-12 10-18 12-29 15-24 9-24 6-24 4-18 1h-17l-20-2-27-5-15-4-22-9-16-8-20-11-13-10-11-9-8-7-7-8-7-7-9-11-12-16-10-18-8-16-9-24-6-24-4-26v-46l5-28 6-22 6-16 11-23 13-21 13-17 4-5h2l2-4 16-16 11-9 13-10 17-10 24-12 18-7 24-6 23-4z" fill="#5714E4"/>
<path transform="translate(967,447)" d="m0 0h66l37 3 34 5 36 8 25 7 32 11 27 11 25 12 32 17 25 16 16 11 19 14 12 10 11 9 7 6 3 4v2l-390 1-30 2-34 5-29 7-23 7-28 11-24 11-17 9-19 12-18 12-17 13-11 9-12 11-8 7-9 9-7 8-9 10-12 15-13 18-13 20-13 23-13 28-9 23-8 25-6 25-4 20-3 21-2 25 1 39 3 34 5 30 6 25 7 22 8 22 9 20 10 21 12 21 14 20-1 2h-167l-4-4-12-28-9-24-8-25-7-27-7-34-5-36-1-16-1-48 1-37 2-24 5-33 6-29 10-37 14-39 11-26 8-17 12-22 9-16 15-24 14-19 14-18 9-11 11-13 11-12 29-29 11-9 14-12 14-11 14-10 16-11 15-10 23-13 19-10 26-12 31-12 35-11 27-7 29-6 26-4 22-2z" fill="#5714E4"/>
</svg>
