<?xml version="1.0" encoding="UTF-8"?>
<svg version="1.1" viewBox="0 0 1600 1600" width="1280" height="1280" xmlns="http://www.w3.org/2000/svg">
<path transform="translate(851,470)" d="m0 0 647 1 5 3 8 16 13 33 15 44 10 35 10 40 5 27 4 32 3 34 1 20v89l-2 33-5 44-5 30-7 30-9 35-12 36-7 19-11 28-13 28-18 36-12 21-12 20-11 17-8 12-10 14-12 16-12 15-11 14-11 13-12 14-12 13-29 29-8 7-12 11-8 7-14 12-18 14-9 6-15 11-18 12-19 12-21 13-23 13-23 12-33 15-28 11-34 12-32 10-30 8-39 8-45 7-39 4-31 2h-65l-31-2-44-5-38-6-29-6-30-8-52-17-44-17-28-12-16-8-27-14-27-16-25-16-20-14-18-13-21-16-14-11-10-9-9-7-2-4 3-1h85l439-1 28-1 36-4 44-7 25-5 26-8 28-10 36-14 29-14 23-12 24-15 22-15 17-12 14-11 15-13 11-10 8-7 25-25 7-8 11-12 8-10 11-15 12-17 12-18 13-21 17-33 16-35 9-25 9-28 13-52 6-35 3-32 1-20v-31l-2-40-2-25-7-45-1-4-22-1h-481l-54 1-22 2-14 4-16 7-12 7-13 10-14 14-9 13-9 17-5 16-3 17-1 10v12l3 21 4 15 5 12 8 14 10 13 10 11 16 12 15 8 19 7 16 3 10 1 231 1h66l10 1 1 5-4 10-14 24-8 14-14 19-10 13-11 13-22 22-8 7-15 12-17 11-15 9-23 12-19 8-22 8-23 6-30 6-23 3-14 1h-28l-22-2-28-5-28-7-18-6-27-12-16-8-16-9-14-9-11-8-13-11-8-7-13-12-7-8-7-7-9-11-11-14-9-13-12-20-8-16-10-22-11-33-7-28-5-33-1-10v-41l4-29 7-29 7-24 8-21 9-19 9-16 15-24 13-18 8-10 11-12 23-23 14-11 17-13 25-15 23-12 19-8 18-6 32-8 26-4 26-2z" fill="#5314DC"/>
<path transform="translate(786,29)" d="m0 0h41l39 2 49 5 34 5 38 8 36 9 40 13 21 8 29 12 29 14 20 10 22 12 20 12 17 11 27 18 19 14 12 9 13 10 11 9 16 16 2 3v3l-514 1-43 2-33 3-35 5-29 6-29 8-29 10-28 11-28 13-28 15-24 15-15 10-17 12-18 14-13 11-11 9-17 16-16 16-7 8-9 10-7 8-13 16-13 18-22 33-8 13-15 26-11 23-7 15-11 27-12 35-6 22-9 44-4 26-2 25v63l3 37 5 36 8 40 7 26 12 36 13 32 11 24 12 24 13 22 12 18 4 8v2l-2 1-230-1-8-16-12-29-11-28-11-33-14-56-8-41-5-39-2-24-1-21v-86l3-39 5-40 8-40 10-40 10-34 15-42 15-35 19-39 13-25 12-20 10-16 13-20 13-18 9-12 9-11 11-14 9-11 12-14 14-15 11-12 29-29 11-9 11-10 14-11 15-12 20-15 19-13 21-14 18-11 22-13 32-16 28-13 36-14 36-12 29-9 36-9 31-6 35-5 30-3 31-2z" fill="#5314DC"/>
</svg>
